<?xml version="1.0" standalone="no"?>
<!DOCTYPE svg PUBLIC "-//W3C//DTD SVG 1.1//EN" "http://www.w3.org/Graphics/SVG/1.1/DTD/svg11.dtd" >
<svg xmlns="http://www.w3.org/2000/svg">
<metadata>
This is a custom SVG webfont generated by Fontspring.
</metadata>
<defs>
<font id="NovecentoLight" horiz-adv-x="1486" >
<font-face units-per-em="2048" ascent="1741" descent="-307" />
<missing-glyph horiz-adv-x="466" />
<glyph unicode=" "  horiz-adv-x="466" />
<glyph unicode="&#x09;" horiz-adv-x="466" />
<glyph unicode="&#xa0;" horiz-adv-x="466" />
<glyph unicode="!" horiz-adv-x="458" d="M190 0v322h78v-322h-78zM190 481v953h78v-953h-78z" />
<glyph unicode="&#x22;" horiz-adv-x="665" d="M190 989v445h82v-445h-82zM395 989v445h80v-445h-80z" />
<glyph unicode="#" horiz-adv-x="1568" d="M63 428l31 64h254l221 485h-252l31 63h250l180 394h72l-178 -394h493l181 394h73l-180 -394h272l-28 -63h-273l-221 -485h268l-30 -64h-266l-197 -428h-74l197 428h-496l-194 -428h-74l196 428h-256zM420 492h495l222 485h-496z" />
<glyph unicode="$" horiz-adv-x="1095" d="M82 371l74 20q12 -154 116.5 -250t280.5 -96q170 0 274.5 89t104.5 228q0 41 -12.5 79t-27.5 66t-48 54.5t-56.5 44t-69.5 38.5l-72 33q-26 11 -79 32l-73 28q-193 76 -263 131q-123 94 -122 236q0 150 110.5 248t286.5 108v158h74v-158q164 -10 273.5 -105t135.5 -251 l-74 -21q-23 141 -123 223.5t-249 82.5q-158 0 -256.5 -77t-98.5 -208q0 -51 26 -96t57.5 -74t93 -60.5t99.5 -46.5l111 -41l31 -12q74 -29 114 -47t105.5 -56t99 -77t60.5 -99.5t27 -132.5q0 -164 -119 -273t-313 -118v-155h-74v157q-184 12 -296 121t-128 277z" />
<glyph unicode="%" horiz-adv-x="1685" d="M31 1032q0 184 90 301t244 117q152 0 241.5 -116.5t89.5 -301.5q0 -186 -89 -303t-242.5 -117t-243.5 117t-90 303zM102 1032.5q0 -155.5 72 -254t190.5 -98.5t189.5 98.5t71 254t-71 252.5t-189 97q-121 0 -192 -97t-71 -252.5zM354 0l908 1434h69l-905 -1434h-72z M987 401.5q0 186.5 90 303t244 116.5t243 -116.5t89 -303t-89 -302t-243 -115.5t-244 115.5t-90 302zM1059 401q0 -154 71.5 -252t190.5 -98t189.5 97.5t70.5 253t-70.5 254t-189.5 98.5t-190.5 -98.5t-71.5 -254.5z" />
<glyph unicode="&#x26;" horiz-adv-x="1355" d="M94 381q0 160 92.5 255t221.5 109v3q-106 18 -191.5 103t-85.5 226q0 158 102.5 271.5t317.5 113.5q172 0 292 -99t154 -286l-71 -20q-72 334 -377 334q-178 0 -258 -94.5t-80 -219.5q0 -127 94 -212t266 -85h727v-71h-254v-215q0 -256 -114.5 -389.5t-368.5 -133.5 q-209 0 -338 114t-129 296zM172 381q0 -150 109.5 -244t281.5 -94q219 0 311.5 111.5t92.5 337.5v217h-396q-182 0 -290.5 -85t-108.5 -243z" />
<glyph unicode="'" horiz-adv-x="462" d="M190 989v445h82v-445h-82z" />
<glyph unicode="(" horiz-adv-x="673" d="M100 721q0 430 112 681t351 343l33 -70q-213 -78 -315.5 -311.5t-102.5 -643t102.5 -643t315.5 -310.5l-33 -68q-240 90 -351.5 342t-111.5 680z" />
<glyph unicode=")" horiz-adv-x="679" d="M84 -233l33 -68q240 90 351.5 342t111.5 680q0 430 -112 681t-351 343l-33 -70q213 -78 315.5 -311.5t102.5 -643t-102.5 -642.5t-315.5 -311z" />
<glyph unicode="*" horiz-adv-x="1003" d="M190 1171l19 60l260 -84v287h66l-5 -287l263 84l20 -60l-266 -77l166 -246l-49 -35l-162 248l-162 -250l-49 37l164 246z" />
<glyph unicode="+" horiz-adv-x="1333" d="M231 692v72h398v391h76v-391h399v-72h-399v-399h-76v399h-398z" />
<glyph unicode="," horiz-adv-x="382" d="M94 -272q92 104 92 235l15 8h-17q-29 -2 -50 18.5t-21 53.5q0 31 21.5 50.5t51.5 19.5q33 0 52.5 -26t19.5 -64q0 -84 -37 -164t-82 -131h-45z" />
<glyph unicode="-" horiz-adv-x="1253" d="M190 692v72h873v-72h-873z" />
<glyph unicode="." horiz-adv-x="382" d="M123 43q0 31 19.5 50.5t47.5 19.5q31 0 50.5 -20.5t19.5 -49.5q0 -31 -20.5 -51.5t-49 -20.5t-48 20.5t-19.5 51.5z" />
<glyph unicode="/" horiz-adv-x="841" d="M57 0l656 1434h71l-653 -1434h-74z" />
<glyph unicode="0" horiz-adv-x="1316" d="M94 716.5q0 323.5 148.5 534.5t415 211t416 -211t149.5 -534.5t-149.5 -534.5t-416 -211t-415 211t-148.5 534.5zM172 717q0 -293 127 -481.5t358 -188.5q233 0 359.5 188.5t126.5 481.5t-126 481t-360 188q-231 0 -358 -188t-127 -481z" />
<glyph unicode="1" horiz-adv-x="706" d="M94 1073l367 361h55v-1434h-78v1094q0 43 2 101t2 91l2 35h-4l-18 -18q-16 -20 -41 -47t-39 -39l-197 -193z" />
<glyph unicode="2" horiz-adv-x="1058" d="M86 1106q49 176 169 266t298 90q190 0 311 -115.5t121 -304.5q0 -45 -6 -88t-23 -84l-29 -71q-13 -31 -43 -69t-45.5 -59.5t-53.5 -58.5l-51 -49l-55 -50q-42 -38 -50 -44l-430 -397l2 -2h4q6 0 14 1t20.5 2t30 1t36 1t42.5 1h49h584v-76h-889v61l629 594 q186 170 186 385q0 158 -98 253.5t-256 95.5q-313 0 -391 -302z" />
<glyph unicode="3" horiz-adv-x="1120" d="M94 367l72 20q18 -152 131 -247t276 -95q180 0 277.5 100.5t97.5 253.5q0 152 -105.5 232t-283.5 80h-115v71h115q172 0 271.5 79t99.5 233q0 119 -87 207t-270 88q-309 0 -378 -304l-72 19q33 168 153.5 263t296.5 95q217 0 327 -108.5t110 -259.5q0 -145 -94.5 -239.5 t-217.5 -104.5v-2q131 -8 229.5 -100.5t98.5 -250.5q0 -195 -127 -310.5t-326 -115.5q-188 0 -320 110t-159 286z" />
<glyph unicode="4" horiz-adv-x="1157" d="M94 412v53l740 969h53v-949h198v-73h-198v-412h-76v412h-717zM188 485l2 -2h47q42 0 100 1t101 1h373v537v65q0 33 1 61t2 52.5t1 43t1 32.5t1 22v7h-2l-18 -27l-55 -75l-70 -95l-348 -457l-80 -97l-45 -54z" />
<glyph unicode="5" horiz-adv-x="1085" d="M84 379l74 18q27 -162 130 -257t269 -95t271.5 114.5t105.5 295t-106.5 295t-270.5 114.5q-266 0 -352 -219l-68 21l123 768h678v-76h-619l-53 -318q-10 -68 -23.5 -135t-21.5 -102l-6 -33l2 -2q35 61 127 113.5t213 52.5q199 0 328 -134t129 -345t-129 -347.5 t-328 -136.5q-193 0 -316.5 110t-156.5 298z" />
<glyph unicode="6" horiz-adv-x="1118" d="M94 463q0 135 40 242.5t134 238.5l359 490h90l-471 -641l2 -5q119 156 330 156q207 0 340 -136t133 -345q0 -215 -135.5 -353.5t-344.5 -138.5q-211 0 -344 139.5t-133 352.5zM172 463q0 -190 110.5 -304t290.5 -114q178 0 288 115q114 119 114 310q0 180 -109 290 q-111 113 -293 112.5t-291.5 -113t-109.5 -296.5z" />
<glyph unicode="7" horiz-adv-x="1009" d="M61 1358v76h902v-56l-713 -1378h-84l627 1208l40 73q22 38 35 58l13 21l-2 2h-11q-12 0 -31.5 -1t-42 -2t-51.5 -1h-55h-627z" />
<glyph unicode="8" horiz-adv-x="1165" d="M94 385q0 166 106.5 265.5t241.5 109.5v4q-92 10 -190 96t-98 230q0 162 119.5 267t310.5 105q193 0 310.5 -106.5t117.5 -265.5q0 -78 -32 -141.5t-80 -101.5t-93 -58.5t-82 -24.5v-4q135 -10 241.5 -109.5t106.5 -265.5q0 -186 -134 -299t-355 -115q-221 2 -355.5 115 t-134.5 299zM170 387q0 -158 111.5 -251t302.5 -95q190 2 300.5 95t110.5 251q0 154 -110.5 243t-301 89t-302 -89t-111.5 -243zM227 1090q0 -131 100 -212q97 -79 249 -79h8q158 2 256 83t98 208q0 137 -98.5 220t-255.5 83q-160 0 -258.5 -83t-98.5 -220z" />
<glyph unicode="9" horiz-adv-x="1134" d="M72 969q0 223 136 358t349 135q215 0 349 -131t134 -364q0 -139 -61 -273.5t-207 -316.5l-287 -377h-88l494 641l-2 2q-127 -156 -336 -156q-219 0 -350 136.5t-131 345.5zM147 967q0 -197 118 -301.5t290 -104.5q178 0 293 108.5t115 297.5q0 211 -115 316.5t-293 105.5 q-172 0 -290 -108.5t-118 -313.5z" />
<glyph unicode=":" horiz-adv-x="382" d="M123 43q0 31 19.5 50.5t47.5 19.5q31 0 50.5 -20.5t19.5 -49.5q0 -31 -20.5 -51.5t-49 -20.5t-48 20.5t-19.5 51.5zM123 698.5q0 30.5 19.5 50t47.5 19.5q31 0 50.5 -20.5t19.5 -49.5q0 -31 -20.5 -51t-49 -20t-48 20.5t-19.5 51z" />
<glyph unicode=";" horiz-adv-x="409" d="M123 -281q92 104 92 236l14 8h-16q-29 -2 -50.5 18.5t-21.5 53.5q0 31 21.5 50t52.5 19q33 0 52.5 -25.5t19.5 -64.5q0 -84 -37 -163.5t-82 -131.5h-45zM141 698.5q0 30.5 19.5 50t48.5 19.5q31 0 50.5 -20.5t19.5 -49.5q0 -31 -20.5 -51t-49.5 -20t-48.5 20.5t-19.5 51z " />
<glyph unicode="&#x3c;" horiz-adv-x="1333" d="M207 752l737 -500h125l-739 500l739 499h-125z" />
<glyph unicode="=" horiz-adv-x="1333" d="M231 528v72h873v-72h-873zM231 856v72h873v-72h-873z" />
<glyph unicode="&#x3e;" horiz-adv-x="1333" d="M221 252l740 500l-740 499h125l737 -499l-737 -500h-125z" />
<glyph unicode="?" horiz-adv-x="1073" d="M94 1104q35 170 157 264t298 94q217 0 323.5 -110.5t106.5 -276.5q0 -291 -432 -459v-135h-82v176q233 92 333.5 189.5t100.5 230.5q0 131 -85 220t-265 89q-313 0 -387 -301zM465 0v322h82v-322h-82z" />
<glyph unicode="@" horiz-adv-x="1503" d="M94 727q0 322 185.5 528.5t472.5 206.5q289 0 474 -206.5t185 -528.5q0 -178 -65.5 -290.5t-174.5 -112.5q-74 0 -122 49t-50 139l-2 4q-27 -82 -103.5 -136t-164.5 -54q-152 0 -249 108.5t-97 282.5q0 186 94 302t252 116q80 0 143.5 -33t89 -64.5t25.5 -50.5h4v107h66 v-574q0 -61 32.5 -99t81.5 -38q82 0 130.5 95t48.5 249q0 299 -169 488.5t-429 189.5q-262 0 -429 -189.5t-167 -488.5q0 -301 168 -499.5t428 -198.5q45 0 87 4t75.5 12t62.5 17.5t53.5 21.5t43 22.5t34.5 23.5l25 21q8 7 18 17l12 12l49 -26q-14 -20 -42.5 -46t-83 -60 t-142.5 -55.5t-192 -21.5q-287 0 -472.5 215t-185.5 541zM455 717q0 -145 76.5 -234.5t197.5 -89.5q119 0 190.5 84t71.5 223v144q0 102 -74.5 162.5t-187.5 60.5q-125 0 -199.5 -95t-74.5 -255z" />
<glyph unicode="A" horiz-adv-x="1335" d="M57 0l576 1434h67l578 -1434h-82l-178 451h-701l-178 -451h-82zM346 522h643l-264 664l-57 153h-2l-7 -20q-8 -20 -22 -61t-27 -72z" />
<glyph unicode="B" horiz-adv-x="1183" d="M190 0v1434h422q178 0 285 -93.5t107 -246.5q0 -117 -82 -202t-174 -97v-2q68 -4 144.5 -44t141 -129.5t64.5 -203.5q0 -193 -121 -304.5t-324 -111.5h-463zM268 72h387q160 0 261.5 92t101.5 248q0 145 -110.5 241.5t-262.5 96.5h-377v-678zM268 821h338q141 0 230.5 78 t89.5 195q0 123 -87 195.5t-237 72.5h-334v-541z" />
<glyph unicode="C" horiz-adv-x="1382" d="M94 717q0 338 183.5 541.5t463.5 203.5q193 0 342.5 -98t227.5 -274l-78 -21q-70 152 -199 234.5t-293 82.5q-252 0 -409.5 -182t-157.5 -487t160 -487.5t409 -182.5q174 0 309.5 96.5t202.5 262.5l76 -21q-76 -195 -231.5 -304.5t-356.5 -109.5q-285 0 -467 206 t-182 540z" />
<glyph unicode="D" horiz-adv-x="1449" d="M190 0v1434h498q293 0 480.5 -200t187.5 -525q0 -322 -182.5 -515.5t-466.5 -193.5h-517zM268 76h441q250 0 408.5 171t158.5 462q0 301 -164 475t-424 174h-420v-1282z" />
<glyph unicode="E" horiz-adv-x="1122" d="M190 0v1434h816v-76h-738v-547h590v-74h-590v-661h750v-76h-828z" />
<glyph unicode="F" horiz-adv-x="1050" d="M190 0v1434h801v-76h-723v-586h576v-74h-576v-698h-78z" />
<glyph unicode="G" horiz-adv-x="1441" d="M94 717q0 338 183.5 541.5t465.5 203.5q203 -4 347.5 -101t220.5 -271l-78 -21q-68 152 -196 234.5t-294 82.5q-252 0 -410.5 -181t-158.5 -488t160 -487.5t409 -180.5q184 0 324.5 97.5t185.5 211.5v287h-415v72h487v-719h-72v73v57v43q0 19 1 31.5t1 20.5v13v4h-2 q-35 -55 -91 -108.5t-170.5 -106t-248.5 -52.5q-283 0 -466 205t-183 539z" />
<glyph unicode="H" horiz-adv-x="1347" d="M190 0v1434h78v-641h811v641h78v-1434h-78v717h-811v-717h-78z" />
<glyph unicode="I" horiz-adv-x="458" d="M190 0v1434h78v-1434h-78z" />
<glyph unicode="J" horiz-adv-x="1193" d="M37 334l78 18q39 -145 149.5 -226t261.5 -81q215 0 326 122t111 347v920h79v-912q0 -262 -133 -407.5t-383 -145.5q-184 0 -315 99.5t-174 265.5z" />
<glyph unicode="K" horiz-adv-x="1245" d="M190 0v1434h78v-461q0 -84 -1 -178.5t-1 -118.5v-43h2q6 0 232 248l512 553h96l-537 -574l596 -860h-90l-559 803l-250 -268v-535h-78z" />
<glyph unicode="L" horiz-adv-x="1036" d="M190 0v1434h78v-1358h727v-76h-805z" />
<glyph unicode="M" horiz-adv-x="1521" d="M190 0v1434h74l365 -711q49 -88 81.5 -154.5t41.5 -87.5l8 -20h2l8 20q8 20 41 87t82 155l364 711h74v-1434h-76v750q0 111 2.5 250t4.5 221l2 79h-2l-13 -26q-14 -27 -41 -83l-55 -112l-371 -712h-43l-370 712l-56 112l-39 83l-12 26h-4l2 -79q2 -82 5 -221.5t3 -249.5 v-750h-78z" />
<glyph unicode="N" horiz-adv-x="1384" d="M190 0v1434h72l717 -1084q43 -61 79 -117.5t50 -80.5l14 -23h2l-2 43q-2 45 -4 132t-2 165v965h78v-1434h-72l-719 1090q-43 61 -77 117l-50 79l-14 25h-2l2 -45q2 -43 4 -129t2 -166v-971h-78z" />
<glyph unicode="O" d="M94 717q0 338 183.5 541.5t466 203.5t467 -205.5t184.5 -539.5q0 -336 -184.5 -541t-467.5 -205q-285 0 -467 206t-182 540zM174 717q0 -307 160 -488.5t409.5 -181.5t410.5 183.5t161 486.5q0 309 -161 489t-411 180q-252 0 -410.5 -181t-158.5 -488z" />
<glyph unicode="P" horiz-adv-x="1062" d="M190 0v1434h334q227 0 357.5 -118t130.5 -323t-131 -322.5t-357 -117.5h-256v-553h-78zM268 627h258q195 0 300.5 98t105.5 268q0 174 -109.5 270.5t-296.5 96.5h-258v-733z" />
<glyph unicode="Q" d="M94 717q0 338 183.5 541.5t466 203.5t467 -205.5t184.5 -539.5q0 -324 -171 -525.5t-440 -218.5v-243h-82v243q-268 16 -438 219t-170 525zM174 717q0 -307 160 -488.5t409.5 -181.5t410.5 183.5t161 486.5q0 309 -161 489t-411 180q-252 0 -410.5 -181t-158.5 -488z" />
<glyph unicode="R" horiz-adv-x="1150" d="M190 0v1434h336q227 0 357.5 -117t130.5 -316q0 -154 -77 -258t-218 -147l338 -596h-90l-324 578q-49 -8 -117 -9h-258v-569h-78zM268 639h260q193 0 299.5 97.5t106.5 264.5q0 170 -108.5 264.5t-297.5 94.5h-260v-721z" />
<glyph unicode="S" horiz-adv-x="1095" d="M82 371l74 20q12 -154 116.5 -250t280.5 -96q170 0 274.5 89t104.5 228q0 41 -12.5 79t-27.5 66t-48 54.5t-56.5 44t-69.5 38.5l-72 33q-26 11 -79 32l-73 28q-193 76 -263 131q-123 94 -122 236q0 158 122.5 258t313.5 100q176 0 296 -97t148 -261l-74 -21 q-23 141 -123 223.5t-249 82.5q-158 0 -256.5 -77t-98.5 -208q0 -51 26 -96t57.5 -74t93 -60.5t99.5 -46.5l111 -41l31 -12q74 -29 114 -47t105.5 -56t99 -77t60.5 -99.5t27 -132.5q0 -170 -128 -280.5t-333 -110.5q-203 0 -327 111t-142 289z" />
<glyph unicode="T" horiz-adv-x="1101" d="M53 1358v76h996v-76h-459v-1358h-78v1358h-459z" />
<glyph unicode="U" horiz-adv-x="1314" d="M152 522v912h77v-918q0 -471 428 -471t428 471v918h78v-912q0 -270 -130 -411.5t-376 -141.5q-248 0 -376.5 140.5t-128.5 412.5z" />
<glyph unicode="V" horiz-adv-x="1320" d="M57 1434h80l453 -1145l30 -85l27 -81l12 -31h3l10 31q12 31 29 81l30 85l453 1145h80l-568 -1434h-71z" />
<glyph unicode="W" horiz-adv-x="1773" d="M59 1434h78l348 -1115q16 -51 30 -103l20 -75l6 -22h2l6 24q4 23 16.5 73t26.5 103l264 895h62l264 -895q14 -53 26.5 -103t16.5 -73l6 -24h2l6 22l19 75l28 103l348 1115h80l-450 -1434h-62l-237 811q-29 94 -47 168l-25 98l-4 23h-4l-6 -23l-25 -98q-18 -74 -45 -168 l-238 -811h-61z" />
<glyph unicode="X" horiz-adv-x="1216" d="M39 0l520 752l-471 682h94l344 -502q78 -127 82 -127h2q4 0 82 127l342 502h94l-471 -682l521 -752h-95l-395 571q-18 25 -38 57l-29 48l-11 18h-2l-10 -18q-12 -16 -31.5 -48t-38.5 -57l-393 -571h-96z" />
<glyph unicode="Y" horiz-adv-x="1165" d="M39 1434h90l365 -512q84 -131 90 -131h2q4 0 86 131l364 512h90l-503 -711v-723h-78v723z" />
<glyph unicode="Z" horiz-adv-x="1253" d="M113 0v70l856 1185l36 45l35 43l15 17l-2 2h-9q-6 0 -20 -1t-32.5 -2t-46.5 -1h-58h-754v76h1008v-70l-852 -1184l-42 -56l-32 -40l-10 -12l2 -2h8q8 2 22.5 3t33 1t44 1t52.5 1h774v-76h-1028z" />
<glyph unicode="[" horiz-adv-x="595" d="M190 -307v2060h328v-76h-246v-1910h246v-74h-328z" />
<glyph unicode="\" horiz-adv-x="841" d="M57 1434l654 -1434h73l-655 1434h-72z" />
<glyph unicode="]" horiz-adv-x="618" d="M100 -233v-74h328v2060h-328v-76h246v-1910h-246z" />
<glyph unicode="^" horiz-adv-x="1263" d="M190 977l441 481l442 -481l-53 -47l-389 432l-389 -432z" />
<glyph unicode="_" horiz-adv-x="1427" d="M190 0h1047v-63h-1047v63z" />
<glyph unicode="`" horiz-adv-x="612" d="M102 1737l37 61l375 -223l-33 -51z" />
<glyph unicode="a" horiz-adv-x="1335" d="M57 0l576 1434h67l578 -1434h-82l-178 451h-701l-178 -451h-82zM346 522h643l-264 664l-57 153h-2l-7 -20q-8 -20 -22 -61t-27 -72z" />
<glyph unicode="b" horiz-adv-x="1183" d="M190 0v1434h422q178 0 285 -93.5t107 -246.5q0 -117 -82 -202t-174 -97v-2q68 -4 144.5 -44t141 -129.5t64.5 -203.5q0 -193 -121 -304.5t-324 -111.5h-463zM268 72h387q160 0 261.5 92t101.5 248q0 145 -110.5 241.5t-262.5 96.5h-377v-678zM268 821h338q141 0 230.5 78 t89.5 195q0 123 -87 195.5t-237 72.5h-334v-541z" />
<glyph unicode="c" horiz-adv-x="1382" d="M94 717q0 338 183.5 541.5t463.5 203.5q193 0 342.5 -98t227.5 -274l-78 -21q-70 152 -199 234.5t-293 82.5q-252 0 -409.5 -182t-157.5 -487t160 -487.5t409 -182.5q174 0 309.5 96.5t202.5 262.5l76 -21q-76 -195 -231.5 -304.5t-356.5 -109.5q-285 0 -467 206 t-182 540z" />
<glyph unicode="d" horiz-adv-x="1449" d="M190 0v1434h498q293 0 480.5 -200t187.5 -525q0 -322 -182.5 -515.5t-466.5 -193.5h-517zM268 76h441q250 0 408.5 171t158.5 462q0 301 -164 475t-424 174h-420v-1282z" />
<glyph unicode="e" horiz-adv-x="1122" d="M190 0v1434h816v-76h-738v-547h590v-74h-590v-661h750v-76h-828z" />
<glyph unicode="f" horiz-adv-x="1050" d="M190 0v1434h801v-76h-723v-586h576v-74h-576v-698h-78z" />
<glyph unicode="g" horiz-adv-x="1441" d="M94 717q0 338 183.5 541.5t465.5 203.5q203 -4 347.5 -101t220.5 -271l-78 -21q-68 152 -196 234.5t-294 82.5q-252 0 -410.5 -181t-158.5 -488t160 -487.5t409 -180.5q184 0 324.5 97.5t185.5 211.5v287h-415v72h487v-719h-72v73v57v43q0 19 1 31.5t1 20.5v13v4h-2 q-35 -55 -91 -108.5t-170.5 -106t-248.5 -52.5q-283 0 -466 205t-183 539z" />
<glyph unicode="h" horiz-adv-x="1347" d="M190 0v1434h78v-641h811v641h78v-1434h-78v717h-811v-717h-78z" />
<glyph unicode="i" horiz-adv-x="458" d="M190 0v1434h78v-1434h-78z" />
<glyph unicode="j" horiz-adv-x="1193" d="M37 334l78 18q39 -145 149.5 -226t261.5 -81q215 0 326 122t111 347v920h79v-912q0 -262 -133 -407.5t-383 -145.5q-184 0 -315 99.5t-174 265.5z" />
<glyph unicode="k" horiz-adv-x="1245" d="M190 0v1434h78v-461q0 -84 -1 -178.5t-1 -118.5v-43h2q6 0 232 248l512 553h96l-537 -574l596 -860h-90l-559 803l-250 -268v-535h-78z" />
<glyph unicode="l" horiz-adv-x="1036" d="M190 0v1434h78v-1358h727v-76h-805z" />
<glyph unicode="m" horiz-adv-x="1521" d="M190 0v1434h74l365 -711q49 -88 81.5 -154.5t41.5 -87.5l8 -20h2l8 20q8 20 41 87t82 155l364 711h74v-1434h-76v750q0 111 2.5 250t4.5 221l2 79h-2l-13 -26q-14 -27 -41 -83l-55 -112l-371 -712h-43l-370 712l-56 112l-39 83l-12 26h-4l2 -79q2 -82 5 -221.5t3 -249.5 v-750h-78z" />
<glyph unicode="n" horiz-adv-x="1384" d="M190 0v1434h72l717 -1084q43 -61 79 -117.5t50 -80.5l14 -23h2l-2 43q-2 45 -4 132t-2 165v965h78v-1434h-72l-719 1090q-43 61 -77 117l-50 79l-14 25h-2l2 -45q2 -43 4 -129t2 -166v-971h-78z" />
<glyph unicode="o" d="M94 717q0 338 183.5 541.5t466 203.5t467 -205.5t184.5 -539.5q0 -336 -184.5 -541t-467.5 -205q-285 0 -467 206t-182 540zM174 717q0 -307 160 -488.5t409.5 -181.5t410.5 183.5t161 486.5q0 309 -161 489t-411 180q-252 0 -410.5 -181t-158.5 -488z" />
<glyph unicode="p" horiz-adv-x="1062" d="M190 0v1434h334q227 0 357.5 -118t130.5 -323t-131 -322.5t-357 -117.5h-256v-553h-78zM268 627h258q195 0 300.5 98t105.5 268q0 174 -109.5 270.5t-296.5 96.5h-258v-733z" />
<glyph unicode="q" d="M94 717q0 338 183.5 541.5t466 203.5t467 -205.5t184.5 -539.5q0 -324 -171 -525.5t-440 -218.5v-243h-82v243q-268 16 -438 219t-170 525zM174 717q0 -307 160 -488.5t409.5 -181.5t410.5 183.5t161 486.5q0 309 -161 489t-411 180q-252 0 -410.5 -181t-158.5 -488z" />
<glyph unicode="r" horiz-adv-x="1150" d="M190 0v1434h336q227 0 357.5 -117t130.5 -316q0 -154 -77 -258t-218 -147l338 -596h-90l-324 578q-49 -8 -117 -9h-258v-569h-78zM268 639h260q193 0 299.5 97.5t106.5 264.5q0 170 -108.5 264.5t-297.5 94.5h-260v-721z" />
<glyph unicode="s" horiz-adv-x="1095" d="M82 371l74 20q12 -154 116.5 -250t280.5 -96q170 0 274.5 89t104.5 228q0 41 -12.5 79t-27.5 66t-48 54.5t-56.5 44t-69.5 38.5l-72 33q-26 11 -79 32l-73 28q-193 76 -263 131q-123 94 -122 236q0 158 122.5 258t313.5 100q176 0 296 -97t148 -261l-74 -21 q-23 141 -123 223.5t-249 82.5q-158 0 -256.5 -77t-98.5 -208q0 -51 26 -96t57.5 -74t93 -60.5t99.5 -46.5l111 -41l31 -12q74 -29 114 -47t105.5 -56t99 -77t60.5 -99.5t27 -132.5q0 -170 -128 -280.5t-333 -110.5q-203 0 -327 111t-142 289z" />
<glyph unicode="t" horiz-adv-x="1101" d="M53 1358v76h996v-76h-459v-1358h-78v1358h-459z" />
<glyph unicode="u" horiz-adv-x="1314" d="M152 522v912h77v-918q0 -471 428 -471t428 471v918h78v-912q0 -270 -130 -411.5t-376 -141.5q-248 0 -376.5 140.5t-128.5 412.5z" />
<glyph unicode="v" horiz-adv-x="1320" d="M57 1434h80l453 -1145l30 -85l27 -81l12 -31h3l10 31q12 31 29 81l30 85l453 1145h80l-568 -1434h-71z" />
<glyph unicode="w" horiz-adv-x="1773" d="M59 1434h78l348 -1115q16 -51 30 -103l20 -75l6 -22h2l6 24q4 23 16.5 73t26.5 103l264 895h62l264 -895q14 -53 26.5 -103t16.5 -73l6 -24h2l6 22l19 75l28 103l348 1115h80l-450 -1434h-62l-237 811q-29 94 -47 168l-25 98l-4 23h-4l-6 -23l-25 -98q-18 -74 -45 -168 l-238 -811h-61z" />
<glyph unicode="x" horiz-adv-x="1216" d="M39 0l520 752l-471 682h94l344 -502q78 -127 82 -127h2q4 0 82 127l342 502h94l-471 -682l521 -752h-95l-395 571q-18 25 -38 57l-29 48l-11 18h-2l-10 -18q-12 -16 -31.5 -48t-38.5 -57l-393 -571h-96z" />
<glyph unicode="y" horiz-adv-x="1165" d="M39 1434h90l365 -512q84 -131 90 -131h2q4 0 86 131l364 512h90l-503 -711v-723h-78v723z" />
<glyph unicode="z" horiz-adv-x="1253" d="M113 0v70l856 1185l36 45l35 43l15 17l-2 2h-9q-6 0 -20 -1t-32.5 -2t-46.5 -1h-58h-754v76h1008v-70l-852 -1184l-42 -56l-32 -40l-10 -12l2 -2h8q8 2 22.5 3t33 1t44 1t52.5 1h774v-76h-1028z" />
<glyph unicode="{" horiz-adv-x="686" d="M190 721q6 2 14.5 6t32 26.5t41 53.5t32 92.5t14.5 136.5v285q0 432 323 432v-76q-246 0 -246 -331v-299q0 -37 -3 -72t-7 -60.5t-11 -49t-13.5 -41t-15.5 -33t-15 -24.5t-14.5 -18.5t-13.5 -13.5t-11 -10l-6 -4q111 -80 110 -328v-297q0 -332 246 -332v-75 q-324 0 -323 432v285q0 231 -115 305z" />
<glyph unicode="|" horiz-adv-x="452" d="M190 -152v1739h72v-1739h-72z" />
<glyph unicode="}" horiz-adv-x="692" d="M45 1677q246 0 246 -331v-299q0 -37 3 -72t7 -60.5t11 -49t13.5 -41t15.5 -33t15 -24.5t14.5 -18.5t13.5 -13.5t11 -10l6 -4q-111 -80 -110 -328v-297q0 -332 -246 -332v-75q324 0 324 432v285q0 231 114 305l19 10q-6 2 -14.5 6t-32 26.5t-41 53.5t-31.5 92.5t-14 136.5 v285q0 432 -324 432v-76z" />
<glyph unicode="~" horiz-adv-x="1333" d="M291 668q12 80 69 127q55 45 137 45h7q84 0 179 -79t148 -79q59 0 99.5 35t44.5 90l69 -19q-10 -78 -66 -124q-54 -45 -135 -46h-7q-82 0 -178.5 78t-151.5 78q-61 0 -99 -33.5t-47 -89.5z" />
<glyph unicode="&#xa1;" horiz-adv-x="458" d="M190 0v952h78v-952h-78zM190 1112v322h78v-322h-78z" />
<glyph unicode="&#xa2;" horiz-adv-x="1021" d="M94 721q0 227 119 370.5t303 155.5v215h70v-215q127 -8 224 -77.5t146 -190.5l-65 -18q-96 219 -340 219q-172 0 -277.5 -123t-105.5 -336q0 -215 106.5 -337t278.5 -122q123 0 215 63.5t135 182.5l66 -21q-45 -131 -146.5 -207.5t-236.5 -86.5v-222h-68v222 q-186 12 -305 157.5t-119 370.5z" />
<glyph unicode="&#xa3;" horiz-adv-x="1253" d="M190 0v76q94 20 139.5 84.5t49.5 164.5q1 28 1 59q0 77 -7 171l-15 156h-145v71h139l-20 230q-3 30 -3 59q0 160 88 264q103 123 285 127h14q141 0 251 -81q115 -85 163 -279l-71 -19q-87 305 -348 306h-17q-143 -4 -222 -105q-67 -85 -67 -223q0 -25 3 -51l20 -228h483 v-71h-477l15 -156q7 -74 6 -138q0 -285 -136 -345l3 -2h14q12 0 35.5 1t55.5 2t72 1t83 1t92 1h96h383v-76h-963z" />
<glyph unicode="&#xa4;" horiz-adv-x="1243" d="M94 207l154 155q-109 145 -109 338q0 217 129 365l-145 143l47 47l147 -143q133 117 306 117q178 0 305 -115l145 141l45 -47l-141 -143q131 -152 131 -365q0 -197 -111 -340l152 -153l-47 -47l-150 149q-141 -137 -329.5 -137t-331.5 139l-152 -151zM215 700.5 q0 -194.5 117 -324.5t291 -130q176 0 292.5 130t116.5 324.5t-117.5 325.5t-291.5 131t-291 -131t-117 -325.5z" />
<glyph unicode="&#xa5;" horiz-adv-x="1165" d="M39 1434h90l365 -512q84 -131 90 -131h2q4 0 86 131l364 512h90l-432 -609h330v-69h-379l-22 -33v-59h401v-68h-401v-596h-78v596h-389v68h389v59l-23 33h-366v69h315z" />
<glyph unicode="&#xa6;" horiz-adv-x="452" d="M190 -152v594h72v-594h-72zM190 1014v573h72v-573h-72z" />
<glyph unicode="&#xa7;" horiz-adv-x="970" d="M82 266l68 19q10 -113 96 -182.5t237 -71.5q145 0 235.5 60.5t90.5 154.5q0 43 -20.5 78.5t-49 59.5t-78 47.5t-87 36.5t-97.5 32q-27 8 -39 12q-182 57 -241 96q-104 66 -105 166q0 86 68.5 149.5t183.5 86.5q-209 78 -209 213q0 109 103.5 177t261.5 68 q147 0 245.5 -68.5t120.5 -185.5l-71 -20q-16 96 -94 151.5t-201 55.5q-129 0 -208 -47t-79 -129q0 -39 22.5 -71t68.5 -54.5t87 -36.5t105 -33q18 -6 28 -8l100 -33q32 -10 92 -37.5t90 -54.5t55.5 -71t25.5 -97q0 -84 -59.5 -142.5t-165.5 -82.5q223 -92 223 -256 q0 -125 -110.5 -204t-291.5 -79q-178 0 -284.5 85t-116.5 216zM166 776q0 -119 311 -209q16 -6 25 -8q53 -16 82 -27q98 18 162.5 70.5t64.5 126.5q0 31 -9 57.5t-35 49.5l-43 36q-17 14 -64 32l-62 24q-16 6 -74.5 23.5t-68.5 21.5q-4 2 -10.5 4t-10.5 2 q-102 -14 -185 -64.5t-83 -138.5z" />
<glyph unicode="&#xa8;" horiz-adv-x="741" d="M106 1636.5q0 32.5 19.5 53t48.5 20.5q31 0 50.5 -20.5t19.5 -53t-19.5 -54t-50.5 -21.5q-29 0 -48.5 21.5t-19.5 54zM502 1636.5q0 32.5 19.5 53t47.5 20.5q31 0 50.5 -20.5t19.5 -53t-19.5 -54t-50.5 -21.5q-29 0 -48 21.5t-19 54z" />
<glyph unicode="&#xa9;" horiz-adv-x="1540" d="M94 716.5q0 325.5 192.5 535.5t481.5 210q291 0 484.5 -210t193.5 -535.5t-193.5 -535.5t-484.5 -210q-289 0 -481.5 210t-192.5 535.5zM162 717q0 -305 171 -492.5t435 -187.5t436 187.5t172 492.5q0 307 -171 493.5t-437 186.5q-264 0 -435 -186.5t-171 -493.5z M449 715q0 172 90 275.5t237 103.5q96 0 178 -55.5t115 -143.5l-61 -21q-27 72 -90.5 114t-141.5 42q-119 0 -190.5 -85t-71.5 -230q0 -147 72.5 -232.5t189.5 -85.5q82 0 147.5 48.5t92.5 127.5l61 -18q-31 -98 -114.5 -158.5t-186.5 -60.5q-147 0 -237 104.5t-90 274.5z " />
<glyph unicode="&#xaa;" horiz-adv-x="653" d="M41 565v64h571v-64h-571zM47 768l256 682h45l256 -682h-72l-67 186h-279l-67 -186h-72zM207 1012h237l-84 227q-8 25 -16 56.5t-12 52.5l-4 18h-2l-7 -18q-4 -20 -12 -52t-16 -57z" />
<glyph unicode="&#xab;" horiz-adv-x="1357" d="M190 721l433 -477l51 45l-391 432l391 432l-51 45zM684 721l432 -477l51 45l-391 432l391 432l-51 45z" />
<glyph unicode="&#xad;" horiz-adv-x="1243" d="M190 692v72h873v-72h-873z" />
<glyph unicode="&#xae;" horiz-adv-x="1540" d="M94 716.5q0 325.5 192.5 535.5t481.5 210q291 0 484.5 -210t193.5 -535.5t-193.5 -535.5t-484.5 -210q-289 0 -481.5 210t-192.5 535.5zM164 717q0 -305 170 -492.5t434 -187.5t436 187.5t172 492.5q0 307 -171 493.5t-437 186.5q-264 0 -434 -186.5t-170 -493.5z M569 336v762h195q121 0 192.5 -61.5t71.5 -168.5q0 -162 -151 -215l180 -317h-72l-174 303q-14 -2 -47 -2h-131v-301h-64zM633 696h131q201 0 201 172q0 168 -201 168h-131v-340z" />
<glyph unicode="&#xaf;" horiz-adv-x="772" d="M98 1442v63h578v-63h-578z" />
<glyph unicode="&#xb0;" horiz-adv-x="538" d="M90 1409q0 76 51.5 128t127 52t128 -52t52.5 -128t-52.5 -129t-128 -53t-127 52t-51.5 130zM147 1409q0 -53 35 -89t86 -36t87 37t36 88q0 53 -36 88t-87 35t-86 -35t-35 -88z" />
<glyph unicode="&#xb1;" horiz-adv-x="1333" d="M231 -23v72h873v-72h-873zM231 692v72h398v391h76v-391h399v-72h-399v-389h-76v389h-398z" />
<glyph unicode="&#xb2;" horiz-adv-x="610" d="M41 1561q55 221 272 221q109 0 183.5 -70t74.5 -176q0 -141 -151 -274l-201 -179q-23 -18 -47 -34l-37 -25l-12 -8l2 -2q74 12 182 12h256v-65h-514v51l332 293q123 115 123 231q0 80 -54.5 130t-138.5 50q-88 0 -135 -41t-72 -133z" />
<glyph unicode="&#xb3;" horiz-adv-x="614" d="M35 1184l67 16q2 -86 62.5 -138t148.5 -52q92 0 143.5 49t51.5 129q0 74 -56.5 118t-148.5 44h-72v59h72q88 0 141.5 46t53.5 116q0 59 -47.5 103t-139.5 44q-162 0 -196 -170l-62 19q14 98 86 156.5t172 58.5q123 0 188.5 -59.5t65.5 -151.5q0 -80 -54 -132.5 t-126 -56.5v-2q76 -6 132 -56t56 -138q0 -106 -72.5 -174t-187.5 -68q-113 0 -190.5 70t-87.5 170z" />
<glyph unicode="&#xb4;" horiz-adv-x="612" d="M102 1575l375 223l37 -61l-379 -213z" />
<glyph unicode="&#xb6;" horiz-adv-x="1069" d="M94 1092q0 162 104.5 252t290.5 90h388v-1434h-78v1358h-160v-1358h-78v750h-72q-186 0 -290.5 91t-104.5 251z" />
<glyph unicode="&#xb7;" horiz-adv-x="382" d="M123 698.5q0 30.5 19.5 50t47.5 19.5q31 0 50.5 -20.5t19.5 -49.5q0 -31 -20.5 -51t-49 -20t-48 20.5t-19.5 51z" />
<glyph unicode="&#xb8;" horiz-adv-x="489" d="M102 -442l25 55h72q59 0 96 31.5t37 83.5q0 53 -38 87.5t-95 34.5h-86l55 150h63l-36 -96h7q83 0 135 -46q54 -48 54 -130q0 -76 -53 -123t-139 -47h-97z" />
<glyph unicode="&#xb9;" horiz-adv-x="380" d="M31 1556l217 209h45v-804h-68v532q0 16 1 41l2 48q1 24 3 46.5t2 36.5l3 14h-3l-8 -10l-21 -27q-13 -16 -26 -28l-102 -101z" />
<glyph unicode="&#xba;" horiz-adv-x="679" d="M20 1106q0 158 91.5 258t228.5 100t228 -101t91 -257q0 -158 -91 -258t-228 -100q-139 0 -229.5 100t-90.5 258zM43 565v64h598v-64h-598zM86 1106q0 -131 71.5 -212t182.5 -81t181.5 82t70.5 211q0 131 -70.5 212t-181.5 81q-113 0 -183.5 -82t-70.5 -211z" />
<glyph unicode="&#xbb;" horiz-adv-x="1357" d="M190 289l392 432l-392 432l52 45l432 -477l-432 -477zM684 289l391 432l-391 432l53 45l430 -477l-430 -477z" />
<glyph unicode="&#xbc;" horiz-adv-x="1228" d="M31 1225l217 209h45v-805h-68v532q0 16 1 41l2 48q1 24 3 46.5t2 36.5l3 15h-3l-8 -11l-21 -26q-13 -16 -26 -29l-102 -100zM94 0l905 1434h70l-905 -1434h-70zM618 221v49l412 535h47v-520h109v-64h-109v-221h-65v221h-394zM690 285l4 -4q4 0 24.5 1t53.5 2t66 1h174 v194q0 33 1 68t2 61.5t3 49t2 34.5l2 13h-2l-21 -31l-54 -81q-34 -50 -62 -87l-92 -113q-16 -23 -42 -49l-42 -43z" />
<glyph unicode="&#xbd;" horiz-adv-x="1316" d="M31 1225l217 209h45v-805h-68v532q0 16 1 41l2 48q1 24 3 46.5t2 36.5l3 15h-3l-8 -11l-21 -26q-13 -16 -26 -29l-102 -100zM94 0l905 1434h70l-905 -1434h-70zM748 600q55 221 272 221q109 0 183.5 -69.5t74.5 -176.5q0 -141 -152 -274l-200 -178q-23 -18 -47 -35 l-37 -25l-13 -8l2 -2q74 12 183 13h256v-66h-514v51l331 293q123 115 123 231q0 80 -54 130.5t-138 50.5q-88 0 -135 -41t-72 -133z" />
<glyph unicode="&#xbe;" horiz-adv-x="1394" d="M35 852l67 16q2 -86 62.5 -138t148.5 -52q92 0 143.5 49t51.5 129q0 74 -56.5 118t-148.5 44h-72v59h72q88 0 141.5 46t53.5 116q0 59 -47.5 103t-139.5 44q-162 0 -196 -169l-62 18q14 98 86 156.5t172 58.5q123 0 188.5 -59.5t65.5 -151.5q0 -80 -54 -132t-126 -56v-2 q76 -6 132 -56.5t56 -138.5q0 -106 -72.5 -174t-187.5 -68q-113 0 -190.5 70t-87.5 170zM260 0l907 1434h70l-905 -1434h-72zM786 221v49l412 535h47v-520h109v-64h-109v-221h-65v221h-394zM858 285l4 -4q4 0 24.5 1t53.5 2t66 1h174v194q0 33 1 68t2 61.5t3 49t2 34.5l2 13 h-2l-21 -31l-54 -81q-34 -50 -62 -87l-93 -113q-16 -23 -42 -49l-42 -43z" />
<glyph unicode="&#xbf;" horiz-adv-x="1073" d="M94 358q0 291 432 459v135h82v-176q-233 -92 -333.5 -189.5t-100.5 -230.5q0 -131 85 -220t265 -89q313 0 387 301l68 -18q-35 -170 -157 -264.5t-298 -94.5q-217 0 -323.5 110.5t-106.5 276.5zM526 1112v322h82v-322h-82z" />
<glyph unicode="&#xc0;" horiz-adv-x="1335" d="M57 0l576 1434h67l578 -1434h-82l-178 451h-701l-178 -451h-82zM346 522h643l-264 664l-57 153h-2l-7 -20q-8 -20 -22 -61t-27 -72zM385 1737l37 61l375 -223l-33 -51z" />
<glyph unicode="&#xc1;" horiz-adv-x="1335" d="M57 0l576 1434h67l578 -1434h-82l-178 451h-701l-178 -451h-82zM346 522h643l-264 664l-57 153h-2l-7 -20q-8 -20 -22 -61t-27 -72zM516 1575l373 223l39 -61l-381 -213z" />
<glyph unicode="&#xc2;" horiz-adv-x="1335" d="M57 0l576 1434h67l578 -1434h-82l-178 451h-701l-178 -451h-82zM346 522h643l-264 664l-57 153h-2l-7 -20q-8 -20 -22 -61t-27 -72zM387 1583l281 258l278 -258l-47 -43l-231 213l-234 -213z" />
<glyph unicode="&#xc3;" horiz-adv-x="1335" d="M57 0l576 1434h67l578 -1434h-82l-178 451h-701l-178 -451h-82zM346 522h643l-264 664l-57 153h-2l-7 -20q-8 -20 -22 -61t-27 -72zM377 1581q-2 70 46 115t122 45q59 0 132 -56.5t109 -56.5q43 0 71 27.5t30 73.5h67q2 -70 -46 -115t-122 -45q-55 0 -127.5 56t-113.5 56 q-45 0 -74 -28.5t-27 -71.5h-67z" />
<glyph unicode="&#xc4;" horiz-adv-x="1335" d="M57 0l576 1434h67l578 -1434h-82l-178 451h-701l-178 -451h-82zM346 522h643l-264 664l-57 153h-2l-7 -20q-8 -20 -22 -61t-27 -72zM399 1636.5q0 32.5 19.5 53t48.5 20.5q31 0 50.5 -20.5t19.5 -53t-19.5 -54t-50.5 -21.5q-29 0 -48.5 21.5t-19.5 54zM795 1636.5 q0 32.5 19.5 53t47.5 20.5q31 0 50.5 -20.5t19.5 -53t-19.5 -54t-50.5 -21.5q-29 0 -48 21.5t-19 54z" />
<glyph unicode="&#xc5;" horiz-adv-x="1335" d="M57 0l574 1430q-61 12 -101.5 61t-40.5 117q0 76 51.5 127t127.5 51q74 0 127 -51.5t53 -126.5q0 -66 -41 -116t-105 -62l576 -1430h-82l-178 451h-701l-178 -451h-82zM346 522h643l-264 664l-57 153h-2l-7 -20q-8 -20 -22 -61t-27 -72zM545 1608q0 -51 35.5 -88t87 -37 t87.5 36.5t36 88.5q0 53 -36 88t-87.5 35t-87 -35t-35.5 -88z" />
<glyph unicode="&#xc6;" horiz-adv-x="1794" d="M57 0l594 1434h1026v-76h-739v-547h594v-74h-594v-661h752v-76h-834v451h-530l-187 -451h-82zM354 522h502v836h-160q-6 0 -104 -262z" />
<glyph unicode="&#xc7;" horiz-adv-x="1382" d="M94 717q0 338 183.5 541.5t463.5 203.5q193 0 342.5 -98t227.5 -274l-78 -21q-70 152 -199 234.5t-293 82.5q-252 0 -409.5 -182t-157.5 -487t160 -487.5t409 -182.5q174 0 309.5 96.5t202.5 262.5l76 -21q-76 -193 -229.5 -302.5t-351.5 -111.5l-27 -67h7q83 0 135 -46 q54 -48 55 -130q0 -76 -53.5 -123t-139.5 -47h-96l24 55h72q59 0 96 31.5t37 83.5q0 53 -38 87.5t-95 34.5h-86l45 123q-262 23 -427 225t-165 519z" />
<glyph unicode="&#xc8;" horiz-adv-x="1122" d="M190 0v1434h816v-76h-738v-547h590v-74h-590v-661h750v-76h-828zM319 1737l37 61l375 -223l-33 -51z" />
<glyph unicode="&#xc9;" horiz-adv-x="1122" d="M190 0v1434h816v-76h-738v-547h590v-74h-590v-661h750v-76h-828zM451 1575l372 223l39 -61l-381 -213z" />
<glyph unicode="&#xca;" horiz-adv-x="1122" d="M190 0v1434h816v-76h-738v-547h590v-74h-590v-661h750v-76h-828zM322 1583l280 258l279 -258l-47 -43l-232 213l-233 -213z" />
<glyph unicode="&#xcb;" horiz-adv-x="1122" d="M190 0v1434h816v-76h-738v-547h590v-74h-590v-661h750v-76h-828zM334 1636.5q0 32.5 19.5 53t47.5 20.5q31 0 50.5 -20.5t19.5 -53t-19.5 -54t-50.5 -21.5q-29 0 -48 21.5t-19 54zM729 1636.5q0 32.5 19.5 53t48.5 20.5q31 0 50 -20.5t19 -53t-19.5 -54t-49.5 -21.5 q-29 0 -48.5 21.5t-19.5 54z" />
<glyph unicode="&#xcc;" horiz-adv-x="458" d="M-53 1737l37 61l374 -223l-32 -51zM190 0v1434h78v-1434h-78z" />
<glyph unicode="&#xcd;" horiz-adv-x="458" d="M78 1575l373 223l38 -61l-380 -213zM190 0v1434h78v-1434h-78z" />
<glyph unicode="&#xce;" horiz-adv-x="458" d="M-51 1583l280 258l279 -258l-47 -43l-232 213l-233 -213zM190 0v1434h78v-1434h-78z" />
<glyph unicode="&#xcf;" horiz-adv-x="458" d="M-39 1636.5q0 32.5 19.5 53t48.5 20.5q31 0 50 -20.5t19 -53t-19.5 -54t-49.5 -21.5q-29 0 -48.5 21.5t-19.5 54zM190 0v1434h78v-1434h-78zM356 1636.5q0 32.5 19.5 53t48.5 20.5q31 0 50.5 -20.5t19.5 -53t-19.5 -54t-50.5 -21.5q-29 0 -48.5 21.5t-19.5 54z" />
<glyph unicode="&#xd0;" horiz-adv-x="1456" d="M94 696v74h103v664h497q293 0 480.5 -200t187.5 -525q0 -322 -182.5 -515.5t-466.5 -193.5h-516v696h-103zM274 76h441q250 0 408.5 171t158.5 462q0 301 -164 475t-424 174h-420v-588h377v-74h-377v-620z" />
<glyph unicode="&#xd1;" horiz-adv-x="1384" d="M190 0v1434h72l717 -1084q43 -61 79 -117.5t50 -80.5l14 -23h2l-2 43q-2 45 -4 132t-2 165v965h78v-1434h-72l-719 1090q-43 61 -77 117l-50 79l-14 25h-2l2 -45q2 -43 4 -129t2 -166v-971h-78zM403 1581q-2 70 46.5 115t121.5 45q59 0 132 -56.5t110 -56.5 q43 0 70.5 27.5t29.5 73.5h68q2 -70 -46 -115t-122 -45q-55 0 -128 56t-114 56q-45 0 -73.5 -28.5t-26.5 -71.5h-68z" />
<glyph unicode="&#xd2;" d="M94 717q0 338 183.5 541.5t466 203.5t467 -205.5t184.5 -539.5q0 -336 -184.5 -541t-467.5 -205q-285 0 -467 206t-182 540zM174 717q0 -307 160 -488.5t409.5 -181.5t410.5 183.5t161 486.5q0 309 -161 489t-411 180q-252 0 -410.5 -181t-158.5 -488zM469 1737l37 61 l375 -223l-33 -51z" />
<glyph unicode="&#xd3;" d="M94 717q0 338 183.5 541.5t466 203.5t467 -205.5t184.5 -539.5q0 -336 -184.5 -541t-467.5 -205q-285 0 -467 206t-182 540zM174 717q0 -307 160 -488.5t409.5 -181.5t410.5 183.5t161 486.5q0 309 -161 489t-411 180q-252 0 -410.5 -181t-158.5 -488zM600 1575l373 223 l39 -61l-381 -213z" />
<glyph unicode="&#xd4;" d="M94 717q0 338 183.5 541.5t466 203.5t467 -205.5t184.5 -539.5q0 -336 -184.5 -541t-467.5 -205q-285 0 -467 206t-182 540zM174 717q0 -307 160 -488.5t409.5 -181.5t410.5 183.5t161 486.5q0 309 -161 489t-411 180q-252 0 -410.5 -181t-158.5 -488zM471 1583l281 258 l278 -258l-47 -43l-231 213l-234 -213z" />
<glyph unicode="&#xd5;" d="M94 717q0 338 183.5 541.5t466 203.5t467 -205.5t184.5 -539.5q0 -336 -184.5 -541t-467.5 -205q-285 0 -467 206t-182 540zM174 717q0 -307 160 -488.5t409.5 -181.5t410.5 183.5t161 486.5q0 309 -161 489t-411 180q-252 0 -410.5 -181t-158.5 -488zM461 1581 q-2 70 46 115t122 45q59 0 132 -56.5t109 -56.5q43 0 71 27.5t30 73.5h67q2 -70 -46 -115t-122 -45q-55 0 -127.5 56t-113.5 56q-45 0 -74 -28.5t-27 -71.5h-67z" />
<glyph unicode="&#xd6;" d="M94 717q0 338 183.5 541.5t466 203.5t467 -205.5t184.5 -539.5q0 -336 -184.5 -541t-467.5 -205q-285 0 -467 206t-182 540zM174 717q0 -307 160 -488.5t409.5 -181.5t410.5 183.5t161 486.5q0 309 -161 489t-411 180q-252 0 -410.5 -181t-158.5 -488zM483 1636.5 q0 32.5 19.5 53t48.5 20.5q31 0 50.5 -20.5t19.5 -53t-19.5 -54t-50.5 -21.5q-29 0 -48.5 21.5t-19.5 54zM879 1636.5q0 32.5 19.5 53t47.5 20.5q31 0 50.5 -20.5t19.5 -53t-19.5 -54t-50.5 -21.5q-29 0 -48 21.5t-19 54z" />
<glyph unicode="&#xd7;" horiz-adv-x="1333" d="M307 401l311 340l-311 340l51 47l310 -333l307 333l51 -47l-309 -340l311 -340l-53 -47l-307 336l-310 -336z" />
<glyph unicode="&#xd8;" d="M94 717q0 338 183.5 541.5t465.5 203.5q225 0 394 -135l69 98l56 -39l-74 -104q207 -211 207 -565q0 -336 -184.5 -541t-467.5 -205q-225 0 -385 129l-65 -92l-57 41l69 98q-211 212 -211 570zM174 717q0 -324 176 -506l744 1055q-150 121 -351 120q-252 0 -410.5 -181 t-158.5 -488zM401 162q147 -115 342 -115q250 0 411 183.5t161 486.5q0 317 -172 502z" />
<glyph unicode="&#xd9;" horiz-adv-x="1314" d="M152 522v912h77v-918q0 -471 428 -471t428 471v918h78v-912q0 -270 -130 -411.5t-376 -141.5q-248 0 -376.5 140.5t-128.5 412.5zM379 1737l37 61l375 -223l-33 -51z" />
<glyph unicode="&#xda;" horiz-adv-x="1314" d="M152 522v912h77v-918q0 -471 428 -471t428 471v918h78v-912q0 -270 -130 -411.5t-376 -141.5q-248 0 -376.5 140.5t-128.5 412.5zM510 1575l373 223l39 -61l-381 -213z" />
<glyph unicode="&#xdb;" horiz-adv-x="1314" d="M152 522v912h77v-918q0 -471 428 -471t428 471v918h78v-912q0 -270 -130 -411.5t-376 -141.5q-248 0 -376.5 140.5t-128.5 412.5zM381 1583l281 258l278 -258l-47 -43l-231 213l-234 -213z" />
<glyph unicode="&#xdc;" horiz-adv-x="1314" d="M152 522v912h77v-918q0 -471 428 -471t428 471v918h78v-912q0 -270 -130 -411.5t-376 -141.5q-248 0 -376.5 140.5t-128.5 412.5zM393 1636.5q0 32.5 19.5 53t48.5 20.5q31 0 50 -20.5t19 -53t-19 -54t-50 -21.5q-29 0 -48.5 21.5t-19.5 54zM788 1636.5q0 32.5 19.5 53 t48.5 20.5q31 0 50.5 -20.5t19.5 -53t-19.5 -54t-50.5 -21.5q-29 0 -48.5 21.5t-19.5 54z" />
<glyph unicode="&#xdd;" horiz-adv-x="1165" d="M39 1434h90l365 -512q84 -131 90 -131h2q4 0 86 131l364 512h90l-503 -711v-723h-78v723zM432 1575l373 223l39 -61l-381 -213z" />
<glyph unicode="&#xde;" horiz-adv-x="1093" d="M190 0v1434h78v-275h299q197 0 319 -120.5t122 -315.5t-122 -315.5t-319 -120.5h-299v-287h-78zM268 362h299q162 0 261.5 99.5t99.5 261.5t-99.5 262t-261.5 100h-299v-723z" />
<glyph unicode="&#xdf;" horiz-adv-x="1409" d="M190 0v1434h1010l-256 -471q-14 -27 -37.5 -66t-38.5 -66l-16 -24l2 -2h14h8q200 0 318 -113q121 -115 121 -303q0 -184 -120 -301t-312 -117q-145 0 -269.5 78t-175.5 205l76 22q45 -106 145.5 -169.5t223.5 -63.5q156 0 255 97.5t99 248.5q0 145 -94 245.5t-260 100.5 h-103v70l213 395q14 29 38 68l38 63l16 27l-4 4h-8q-8 0 -22.5 -1t-34 -2t-45.5 -1h-53h-650v-1358h-78z" />
<glyph unicode="&#xe0;" horiz-adv-x="1335" d="M57 0l576 1434h67l578 -1434h-82l-178 451h-701l-178 -451h-82zM346 522h643l-264 664l-57 153h-2l-7 -20q-8 -20 -22 -61t-27 -72zM385 1737l37 61l375 -223l-33 -51z" />
<glyph unicode="&#xe1;" horiz-adv-x="1335" d="M57 0l576 1434h67l578 -1434h-82l-178 451h-701l-178 -451h-82zM346 522h643l-264 664l-57 153h-2l-7 -20q-8 -20 -22 -61t-27 -72zM516 1575l373 223l39 -61l-381 -213z" />
<glyph unicode="&#xe2;" horiz-adv-x="1335" d="M57 0l576 1434h67l578 -1434h-82l-178 451h-701l-178 -451h-82zM346 522h643l-264 664l-57 153h-2l-7 -20q-8 -20 -22 -61t-27 -72zM387 1583l281 258l278 -258l-47 -43l-231 213l-234 -213z" />
<glyph unicode="&#xe3;" horiz-adv-x="1335" d="M57 0l576 1434h67l578 -1434h-82l-178 451h-701l-178 -451h-82zM346 522h643l-264 664l-57 153h-2l-7 -20q-8 -20 -22 -61t-27 -72zM377 1581q-2 70 46 115t122 45q59 0 132 -56.5t109 -56.5q43 0 71 27.5t30 73.5h67q2 -70 -46 -115t-122 -45q-55 0 -127.5 56t-113.5 56 q-45 0 -74 -28.5t-27 -71.5h-67z" />
<glyph unicode="&#xe4;" horiz-adv-x="1335" d="M57 0l576 1434h67l578 -1434h-82l-178 451h-701l-178 -451h-82zM346 522h643l-264 664l-57 153h-2l-7 -20q-8 -20 -22 -61t-27 -72zM399 1636.5q0 32.5 19.5 53t48.5 20.5q31 0 50.5 -20.5t19.5 -53t-19.5 -54t-50.5 -21.5q-29 0 -48.5 21.5t-19.5 54zM795 1636.5 q0 32.5 19.5 53t47.5 20.5q31 0 50.5 -20.5t19.5 -53t-19.5 -54t-50.5 -21.5q-29 0 -48 21.5t-19 54z" />
<glyph unicode="&#xe5;" horiz-adv-x="1335" d="M57 0l574 1430q-61 12 -101.5 61t-40.5 117q0 76 51.5 127t127.5 51q74 0 127 -51.5t53 -126.5q0 -66 -41 -116t-105 -62l576 -1430h-82l-178 451h-701l-178 -451h-82zM346 522h643l-264 664l-57 153h-2l-7 -20q-8 -20 -22 -61t-27 -72zM545 1608q0 -51 35.5 -88t87 -37 t87.5 36.5t36 88.5q0 53 -36 88t-87.5 35t-87 -35t-35.5 -88z" />
<glyph unicode="&#xe6;" horiz-adv-x="1794" d="M57 0l594 1434h1026v-76h-739v-547h594v-74h-594v-661h752v-76h-834v451h-530l-187 -451h-82zM354 522h502v836h-160q-6 0 -104 -262z" />
<glyph unicode="&#xe7;" horiz-adv-x="1382" d="M94 717q0 338 183.5 541.5t463.5 203.5q193 0 342.5 -98t227.5 -274l-78 -21q-70 152 -199 234.5t-293 82.5q-252 0 -409.5 -182t-157.5 -487t160 -487.5t409 -182.5q174 0 309.5 96.5t202.5 262.5l76 -21q-76 -193 -229.5 -302.5t-351.5 -111.5l-27 -67h7q83 0 135 -46 q54 -48 55 -130q0 -76 -53.5 -123t-139.5 -47h-96l24 55h72q59 0 96 31.5t37 83.5q0 53 -38 87.5t-95 34.5h-86l45 123q-262 23 -427 225t-165 519z" />
<glyph unicode="&#xe8;" horiz-adv-x="1122" d="M190 0v1434h816v-76h-738v-547h590v-74h-590v-661h750v-76h-828zM311 1737l37 61l375 -223l-33 -51z" />
<glyph unicode="&#xe9;" horiz-adv-x="1122" d="M190 0v1434h816v-76h-738v-547h590v-74h-590v-661h750v-76h-828zM442 1575l373 223l39 -61l-381 -213z" />
<glyph unicode="&#xea;" horiz-adv-x="1122" d="M190 0v1434h816v-76h-738v-547h590v-74h-590v-661h750v-76h-828zM313 1583l281 258l278 -258l-47 -43l-231 213l-234 -213z" />
<glyph unicode="&#xeb;" horiz-adv-x="1122" d="M190 0v1434h816v-76h-738v-547h590v-74h-590v-661h750v-76h-828zM326 1636.5q0 32.5 19.5 53t47.5 20.5q31 0 50.5 -20.5t19.5 -53t-19.5 -54t-50.5 -21.5q-29 0 -48 21.5t-19 54zM721 1636.5q0 32.5 19.5 53t47.5 20.5q31 0 50.5 -20.5t19.5 -53t-19.5 -54t-50.5 -21.5 q-29 0 -48 21.5t-19 54z" />
<glyph unicode="&#xec;" horiz-adv-x="458" d="M-53 1737l37 61l374 -223l-32 -51zM190 0v1434h78v-1434h-78z" />
<glyph unicode="&#xed;" horiz-adv-x="458" d="M78 1575l373 223l38 -61l-380 -213zM190 0v1434h78v-1434h-78z" />
<glyph unicode="&#xee;" horiz-adv-x="458" d="M-51 1583l280 258l279 -258l-47 -43l-232 213l-233 -213zM190 0v1434h78v-1434h-78z" />
<glyph unicode="&#xef;" horiz-adv-x="458" d="M-39 1636.5q0 32.5 19.5 53t48.5 20.5q31 0 50 -20.5t19 -53t-19.5 -54t-49.5 -21.5q-29 0 -48.5 21.5t-19.5 54zM190 0v1434h78v-1434h-78zM356 1636.5q0 32.5 19.5 53t48.5 20.5q31 0 50.5 -20.5t19.5 -53t-19.5 -54t-50.5 -21.5q-29 0 -48.5 21.5t-19.5 54z" />
<glyph unicode="&#xf0;" horiz-adv-x="1456" d="M94 696v74h103v664h497q293 0 480.5 -200t187.5 -525q0 -322 -182.5 -515.5t-466.5 -193.5h-516v696h-103zM274 76h441q250 0 408.5 171t158.5 462q0 301 -164 475t-424 174h-420v-588h377v-74h-377v-620z" />
<glyph unicode="&#xf1;" horiz-adv-x="1384" d="M190 0v1434h72l717 -1084q43 -61 79 -117.5t50 -80.5l14 -23h2l-2 43q-2 45 -4 132t-2 165v965h78v-1434h-72l-719 1090q-43 61 -77 117l-50 79l-14 25h-2l2 -45q2 -43 4 -129t2 -166v-971h-78zM403 1581q-2 70 46.5 115t121.5 45q59 0 132 -56.5t110 -56.5 q43 0 70.5 27.5t29.5 73.5h68q2 -70 -46 -115t-122 -45q-55 0 -128 56t-114 56q-45 0 -73.5 -28.5t-26.5 -71.5h-68z" />
<glyph unicode="&#xf2;" d="M94 717q0 338 183.5 541.5t466 203.5t467 -205.5t184.5 -539.5q0 -336 -184.5 -541t-467.5 -205q-285 0 -467 206t-182 540zM174 717q0 -307 160 -488.5t409.5 -181.5t410.5 183.5t161 486.5q0 309 -161 489t-411 180q-252 0 -410.5 -181t-158.5 -488zM465 1737l37 61 l375 -223l-33 -51z" />
<glyph unicode="&#xf3;" d="M94 717q0 338 183.5 541.5t466 203.5t467 -205.5t184.5 -539.5q0 -336 -184.5 -541t-467.5 -205q-285 0 -467 206t-182 540zM174 717q0 -307 160 -488.5t409.5 -181.5t410.5 183.5t161 486.5q0 309 -161 489t-411 180q-252 0 -410.5 -181t-158.5 -488zM596 1575l373 223 l39 -61l-381 -213z" />
<glyph unicode="&#xf4;" d="M94 717q0 338 183.5 541.5t466 203.5t467 -205.5t184.5 -539.5q0 -336 -184.5 -541t-467.5 -205q-285 0 -467 206t-182 540zM174 717q0 -307 160 -488.5t409.5 -181.5t410.5 183.5t161 486.5q0 309 -161 489t-411 180q-252 0 -410.5 -181t-158.5 -488zM467 1583l281 258 l278 -258l-47 -43l-231 213l-234 -213z" />
<glyph unicode="&#xf5;" d="M94 717q0 338 183.5 541.5t466 203.5t467 -205.5t184.5 -539.5q0 -336 -184.5 -541t-467.5 -205q-285 0 -467 206t-182 540zM174 717q0 -307 160 -488.5t409.5 -181.5t410.5 183.5t161 486.5q0 309 -161 489t-411 180q-252 0 -410.5 -181t-158.5 -488zM457 1581 q-2 70 46 115t122 45q59 0 131.5 -56.5t109.5 -56.5q43 0 71 27.5t30 73.5h67q2 -70 -46 -115t-122 -45q-55 0 -127.5 56t-113.5 56q-45 0 -74 -28.5t-27 -71.5h-67z" />
<glyph unicode="&#xf6;" d="M94 717q0 338 183.5 541.5t466 203.5t467 -205.5t184.5 -539.5q0 -336 -184.5 -541t-467.5 -205q-285 0 -467 206t-182 540zM174 717q0 -307 160 -488.5t409.5 -181.5t410.5 183.5t161 486.5q0 309 -161 489t-411 180q-252 0 -410.5 -181t-158.5 -488zM479 1636.5 q0 32.5 19.5 53t48.5 20.5q31 0 50 -20.5t19 -53t-19 -54t-50 -21.5q-29 0 -48.5 21.5t-19.5 54zM874 1636.5q0 32.5 19.5 53t48.5 20.5q31 0 50.5 -20.5t19.5 -53t-19.5 -54t-50.5 -21.5q-29 0 -48.5 21.5t-19.5 54z" />
<glyph unicode="&#xf7;" horiz-adv-x="1333" d="M223 692v72h873v-72h-873zM584 280.5q0 30.5 19.5 50t47.5 19.5q31 0 50.5 -20.5t19.5 -48.5q0 -31 -20.5 -51.5t-49 -20.5t-48 20.5t-19.5 51zM584 1181.5q0 30.5 19.5 50t47.5 19.5q31 0 50.5 -20.5t19.5 -48.5q0 -31 -20.5 -51.5t-49 -20.5t-48 20.5t-19.5 51z" />
<glyph unicode="&#xf8;" d="M94 717q0 338 183.5 541.5t465.5 203.5q225 0 394 -135l69 98l56 -39l-74 -104q207 -211 207 -565q0 -336 -184.5 -541t-467.5 -205q-225 0 -385 129l-65 -92l-57 41l69 98q-211 212 -211 570zM174 717q0 -324 176 -506l744 1055q-150 121 -351 120q-252 0 -410.5 -181 t-158.5 -488zM401 162q147 -115 342 -115q250 0 411 183.5t161 486.5q0 317 -172 502z" />
<glyph unicode="&#xf9;" horiz-adv-x="1314" d="M152 522v912h77v-918q0 -471 428 -471t428 471v918h78v-912q0 -270 -130 -411.5t-376 -141.5q-248 0 -376.5 140.5t-128.5 412.5zM379 1737l37 61l375 -223l-33 -51z" />
<glyph unicode="&#xfa;" horiz-adv-x="1314" d="M152 522v912h77v-918q0 -471 428 -471t428 471v918h78v-912q0 -270 -130 -411.5t-376 -141.5q-248 0 -376.5 140.5t-128.5 412.5zM510 1575l373 223l39 -61l-381 -213z" />
<glyph unicode="&#xfb;" horiz-adv-x="1314" d="M152 522v912h77v-918q0 -471 428 -471t428 471v918h78v-912q0 -270 -130 -411.5t-376 -141.5q-248 0 -376.5 140.5t-128.5 412.5zM381 1583l281 258l278 -258l-47 -43l-231 213l-234 -213z" />
<glyph unicode="&#xfc;" horiz-adv-x="1314" d="M152 522v912h77v-918q0 -471 428 -471t428 471v918h78v-912q0 -270 -130 -411.5t-376 -141.5q-248 0 -376.5 140.5t-128.5 412.5zM393 1636.5q0 32.5 19.5 53t48.5 20.5q31 0 50 -20.5t19 -53t-19 -54t-50 -21.5q-29 0 -48.5 21.5t-19.5 54zM788 1636.5q0 32.5 19.5 53 t48.5 20.5q31 0 50.5 -20.5t19.5 -53t-19.5 -54t-50.5 -21.5q-29 0 -48.5 21.5t-19.5 54z" />
<glyph unicode="&#xfd;" horiz-adv-x="1165" d="M39 1434h90l365 -512q84 -131 90 -131h2q4 0 86 131l364 512h90l-503 -711v-723h-78v723zM432 1575l373 223l39 -61l-381 -213z" />
<glyph unicode="&#xfe;" horiz-adv-x="1093" d="M190 0v1434h78v-275h299q197 0 319 -120.5t122 -315.5t-122 -315.5t-319 -120.5h-299v-287h-78zM268 362h299q162 0 261.5 99.5t99.5 261.5t-99.5 262t-261.5 100h-299v-723z" />
<glyph unicode="&#xff;" horiz-adv-x="1165" d="M39 1434h90l365 -512q84 -131 90 -131h2q4 0 86 131l364 512h90l-503 -711v-723h-78v723zM315 1636.5q0 32.5 19.5 53t48.5 20.5q31 0 50.5 -20.5t19.5 -53t-19.5 -54t-50.5 -21.5q-29 0 -48.5 21.5t-19.5 54zM711 1636.5q0 32.5 19.5 53t47.5 20.5q31 0 50.5 -20.5 t19.5 -53t-19.5 -54t-50.5 -21.5q-29 0 -48 21.5t-19 54z" />
<glyph unicode="&#x152;" horiz-adv-x="1783" d="M94 717q0 336 178.5 530.5t464.5 194.5q61 0 111 -8h819v-76h-741v-547h594v-74h-594v-661h753v-76h-831q-47 -8 -111 -8q-289 0 -466 195.5t-177 529.5zM174 717q0 -307 154.5 -478t408.5 -171q61 0 111 12v1274q-49 12 -111 12q-256 0 -409.5 -171t-153.5 -478z" />
<glyph unicode="&#x153;" horiz-adv-x="1783" d="M94 717q0 336 178.5 530.5t464.5 194.5q61 0 111 -8h819v-76h-741v-547h594v-74h-594v-661h753v-76h-831q-47 -8 -111 -8q-289 0 -466 195.5t-177 529.5zM174 717q0 -307 154.5 -478t408.5 -171q61 0 111 12v1274q-49 12 -111 12q-256 0 -409.5 -171t-153.5 -478z" />
<glyph unicode="&#x178;" horiz-adv-x="1165" d="M39 1434h90l365 -512q84 -131 90 -131h2q4 0 86 131l364 512h90l-503 -711v-723h-78v723zM315 1636.5q0 32.5 19.5 53t48.5 20.5q31 0 50.5 -20.5t19.5 -53t-19.5 -54t-50.5 -21.5q-29 0 -48.5 21.5t-19.5 54zM711 1636.5q0 32.5 19.5 53t47.5 20.5q31 0 50.5 -20.5 t19.5 -53t-19.5 -54t-50.5 -21.5q-29 0 -48 21.5t-19 54z" />
<glyph unicode="&#x2c6;" horiz-adv-x="778" d="M111 1583l280 258l279 -258l-47 -43l-232 213l-233 -213z" />
<glyph unicode="&#x2dc;" horiz-adv-x="780" d="M102 1581q0 70 47.5 115t120.5 45q59 0 132 -56.5t110 -56.5q45 0 72.5 27.5t27.5 73.5h68q2 -70 -45 -115t-123 -45q-55 0 -128 56t-114 56q-45 0 -72.5 -28.5t-27.5 -71.5h-68z" />
<glyph unicode="&#x2013;" horiz-adv-x="1132" d="M190 690v74h752v-74h-752z" />
<glyph unicode="&#x2014;" horiz-adv-x="1884" d="M190 690v74h1504v-74h-1504z" />
<glyph unicode="&#x2018;" horiz-adv-x="542" d="M190 1167q0 84 36 165t81 130h45q-90 -106 -90 -235l-14 -8h16q29 2 50.5 -18.5t21.5 -53.5q0 -31 -21.5 -50.5t-52.5 -19.5q-33 0 -52.5 25.5t-19.5 64.5z" />
<glyph unicode="&#x2019;" horiz-adv-x="542" d="M190 1077q90 102 91 234l16 10h-16q-29 -2 -50.5 17.5t-21.5 52t21.5 52t52 19.5t50 -25.5t19.5 -64.5q0 -84 -35.5 -164t-80.5 -131h-46z" />
<glyph unicode="&#x201a;" horiz-adv-x="542" d="M190 -270q90 102 91 233l16 10h-16q-29 -2 -50.5 17.5t-21.5 52.5t21.5 52.5t52 19.5t50 -26t19.5 -64q0 -84 -35.5 -164t-80.5 -131h-46z" />
<glyph unicode="&#x201c;" horiz-adv-x="841" d="M190 1167q0 84 36 165t81 130h45q-90 -106 -90 -235l-14 -8h16q29 2 50.5 -18.5t21.5 -53.5q0 -31 -21.5 -50.5t-52.5 -19.5q-33 0 -52.5 25.5t-19.5 64.5zM487 1167q0 84 37 164t82 131h45q-90 -106 -90 -235l-16 -8h16q29 2 50.5 -18.5t21.5 -53.5q0 -31 -21.5 -50.5 t-52.5 -19.5q-33 0 -52.5 25.5t-19.5 64.5z" />
<glyph unicode="&#x201d;" horiz-adv-x="841" d="M190 1077q90 102 91 234l16 10h-16q-29 -2 -50.5 17.5t-21.5 52t21.5 52t52 19.5t50 -25.5t19.5 -64.5q0 -84 -35.5 -164t-80.5 -131h-46zM487 1077q92 100 93 234l14 10h-16q-29 -2 -50.5 17.5t-21.5 52t21.5 52t52 19.5t51 -26.5t20.5 -63.5q0 -84 -36.5 -164 t-82.5 -131h-45z" />
<glyph unicode="&#x201e;" horiz-adv-x="821" d="M190 -270q90 102 91 233l16 10h-16q-29 -2 -50.5 17.5t-21.5 52.5t21.5 52.5t52 19.5t50 -26t19.5 -64q0 -84 -35.5 -164t-80.5 -131h-46zM467 -270q90 102 90 233l16 10h-16q-29 -2 -50.5 17.5t-21.5 52.5t21.5 52.5t52.5 19.5t51.5 -27t20.5 -63q0 -84 -37 -164 t-82 -131h-45z" />
<glyph unicode="&#x2022;" horiz-adv-x="684" d="M190 727q0 68 44.5 114t108 46t107.5 -46t44 -114q0 -70 -43 -116t-109 -46t-109 46t-43 116z" />
<glyph unicode="&#x2026;" horiz-adv-x="1316" d="M123 29q0 27 16.5 43t41 16t40 -17.5t15.5 -42t-16.5 -41t-39.5 -16.5q-25 0 -41 16.5t-16 41.5zM598 29q0 27 16.5 43t38.5 16q25 0 41.5 -17.5t16.5 -42t-16.5 -41t-41 -16.5t-40 16.5t-15.5 41.5zM1083 29q0 27 16.5 43t39.5 16q25 0 40 -17.5t15 -42t-16.5 -41 t-38.5 -16.5q-25 0 -40.5 16.5t-15.5 41.5z" />
<glyph unicode="&#x2039;" horiz-adv-x="864" d="M190 721l431 -477l53 45l-391 432l391 432l-53 45z" />
<glyph unicode="&#x203a;" horiz-adv-x="864" d="M190 289l392 432l-392 432l52 45l432 -477l-432 -477z" />
<glyph unicode="&#x20ac;" horiz-adv-x="1462" d="M94 596v68h86q-2 18 -2 53v47h-84v67h90q33 287 210 458t431 171q190 0 340 -98t228 -272l-82 -23q-70 152 -196 233.5t-290 81.5q-225 0 -378.5 -147.5t-184.5 -403.5h598v-67h-602q-2 -16 -2 -47q0 -35 2 -53h602v-68h-596q31 -252 184.5 -398.5t376.5 -146.5 q174 0 308.5 94.5t197.5 262.5l78 -23q-74 -195 -227.5 -302.5t-356.5 -107.5q-254 0 -431 169t-210 452h-90z" />
<glyph unicode="&#x2122;" horiz-adv-x="1478" d="M53 1374v64h518v-64h-227v-606h-65v606h-226zM700 768v670h64l180 -344q14 -27 26.5 -53.5t16.5 -39.5l6 -12h4l4 12q4 12 17 38l26 55l183 344h63v-670h-67v313q0 51 4 115t6 100l2 37h-2l-8 -14q-6 -14 -19.5 -43t-27.5 -55l-162 -295h-43l-160 295l-29 55 q-14 29 -20 43l-6 14h-4l2 -37q2 -37 6 -100t4 -115v-313h-66z" />
<glyph unicode="&#xe000;" horiz-adv-x="1435" d="M0 1435h1435v-1435h-1435v1435z" />
<glyph unicode="&#xfb01;" horiz-adv-x="1508" d="M1240 0v1434h78v-1434h-78zM190 0v1434h801v-76h-723v-586h576v-74h-576v-698h-78z" />
<glyph unicode="&#xfb02;" horiz-adv-x="2086" d="M1240 0v1434h78v-1358h727v-76h-805zM190 0v1434h801v-76h-723v-586h576v-74h-576v-698h-78z" />
<glyph unicode="&#xfb03;" horiz-adv-x="2558" d="M2290 0v1434h78v-1434h-78zM1240 0v1434h801v-76h-723v-586h576v-74h-576v-698h-78zM190 0v1434h801v-76h-723v-586h576v-74h-576v-698h-78z" />
<glyph unicode="&#xfb04;" horiz-adv-x="3136" d="M2290 0v1434h78v-1358h727v-76h-805zM1240 0v1434h801v-76h-723v-586h576v-74h-576v-698h-78zM190 0v1434h801v-76h-723v-586h576v-74h-576v-698h-78z" />
</font>
</defs>
</svg>
